<?xml version="1.0" encoding="utf-8"?>
<!-- Generator: Adobe Illustrator 26.1.0, SVG Export Plug-In . SVG Version: 6.00 Build 0)  -->
<svg version="1.1" id="Magic_x5F_logo_x5F_Knockout_x5F_AW"
	 xmlns="http://www.w3.org/2000/svg" xmlns:xlink="http://www.w3.org/1999/xlink" x="0px" y="0px" viewBox="0 0 493.001 117.998"
	 style="enable-background:new 0 0 493.001 117.998;" xml:space="preserve">
<style type="text/css">
	.st0{fill:#FFFFFF;}
</style>
<g>
	<g>
		<path class="st0" d="M183.8,52.97l20.3-42.34c0.21-0.45,0.63-0.69,1.11-0.69h28.03c0.42,0,0.78,0.18,1.02,0.54
			c0.24,0.36,0.27,0.75,0.12,1.13l-3.36,8.36v63.36l3.36,8.36c0.15,0.39,0.12,0.8-0.12,1.13c-0.24,0.33-0.6,0.54-1.02,0.54H205.9
			c-0.42,0-0.78-0.18-1.02-0.54c-0.24-0.35-0.27-0.74-0.12-1.13l3.36-8.36V33.59l-28.67,60.58c-0.21,0.44-0.63,0.71-1.14,0.71
			c-0.51,0-0.93-0.3-1.11-0.74l-24.88-57.86v43.71l4.73,11.73c0.15,0.39,0.12,0.8-0.12,1.13c-0.24,0.33-0.6,0.54-1.02,0.54h-20.77
			c-0.42,0-0.78-0.18-1.02-0.54c-0.24-0.36-0.27-0.74-0.12-1.13l4.73-11.73V20l-3.35-8.36c-0.15-0.38-0.12-0.8,0.12-1.13
			c0.24-0.36,0.6-0.54,1.01-0.54h28.16c0.51,0,0.93,0.3,1.14,0.75l18.05,42.3L183.8,52.97z"/>
		<path class="st0" d="M310.06,91.72c0.15,0.39,0.12,0.77-0.12,1.13c-0.24,0.33-0.6,0.54-0.99,0.54h-23.9
			c-0.66,0-1.23-0.54-1.23-1.22v-3.71c-5.87,4.42-12.74,6.33-20.24,6.33c-8.24,0-16.61-3.1-20.02-11.16
			c-3.39-7.97-0.15-16.81,5.54-22.81c8.67-9.14,22.19-12.18,34.36-12.18h0.3c-0.12-2.21-0.75-4.63-2.66-5.83
			c-7.92-4.92-20.48,2.27-27.11,6.96c-0.3,0.21-0.66,0.27-1.02,0.18c-0.36-0.09-0.63-0.33-0.78-0.66l-5.28-10.92
			c-0.15-0.3-0.15-0.63-0.03-0.96c0.12-0.33,0.33-0.54,0.66-0.69c17.63-7.55,59.1-9.55,59.1,17.95V83.3l3.36,8.39L310.06,91.72z
			 M283.82,59.03c-4.85,0.47-9.2,2.68-12.47,6.42c-2.61,3.01-4.65,7.34-4.44,11.4c0.09,1.67,0.66,3.25,2.07,4.24
			c2.64,1.82,6.54,0.72,9-0.87c3.86-2.5,5.84-6.71,5.84-11.28V59.03L283.82,59.03z"/>
		<path class="st0" d="M376.26,117.6c0,0-0.09-0.12-0.12-0.17c-0.03-0.09-0.09-0.18-0.09-0.27c-0.03-0.21,0-0.39,0.06-0.6
			c0,0,0.06-0.12,0.09-0.15c2.85-4.09-0.51-7.79-6.74-5.88c-7.38,2.24-23.96,6.45-31.52,6.54c-8.81,0.12-17.6-2.63-21.61-10.96
			c-4.95-10.27,2.66-23.32,11.03-26.84c-20.66-14.36-12.5-46.97,23.45-46.97c5.87,0,11.81,0.87,17.27,3.08
			c2.46-5.61,6.17-10.63,11.57-13.73c0.63-0.36,1.41-0.12,1.71,0.53l6.84,14.66c0.36,0.75-0.15,1.62-0.96,1.7
			c-3.27,0.36-6.78,1.2-9.72,2.72c9.06,8.36,10.74,21.38,3.63,31.41c-4.89,6.9-12.5,10.57-20.57,12.21
			c-7.58,1.55-14.72,0.21-22.55,1.97c-7.31,1.64-6.08,11.53,2.37,9.82c6.99-1.4,19.76-5.01,28.22-6.65
			c18.29-3.56,25.72,13.88,18.71,27.11c-0.54,1.01-1.17,0.86-2.64,0.86h-7.62c-0.3,0-0.57-0.12-0.75-0.33L376.26,117.6z
			 M355.18,45.32c-2.33-2.24-5.63-4.15-8.99-3.64c-3.72,0.57-5.79,3.88-6.66,7.28c-0.9,3.62-0.6,7.62,0.36,11.17
			c1.14,4.3,3.42,8.6,6.66,11.67c6.24,5.95,13.52,4.81,15.65-3.64c0.93-3.61,0.6-7.61-0.36-11.16
			C360.7,52.7,358.42,48.4,355.18,45.32L355.18,45.32z"/>
		<path class="st0" d="M424.12,91.72c0.15,0.39,0.12,0.77-0.12,1.13c-0.24,0.33-0.6,0.54-0.99,0.54h-27.35
			c-0.42,0-0.78-0.18-1.02-0.54c-0.24-0.36-0.27-0.74-0.12-1.13l3.36-8.39V49.11l-4.05-6.68c-0.21-0.33-0.24-0.69-0.09-1.05
			c0.15-0.36,0.39-0.63,0.78-0.72l4.23-1.34h0.06l20.42-5.55c0.39-0.09,0.75-0.03,1.05,0.21c0.3,0.24,0.48,0.56,0.48,0.95v48.43
			l3.36,8.39V91.72z M408.82,5.67h0.24c6.72,0,12.18,5.44,12.18,12.12c0,6.69-5.46,12.19-12.21,12.13h-0.24
			c-6.71,0-12.17-5.44-12.17-12.13C396.62,11.11,402.08,5.67,408.82,5.67z"/>
		<path class="st0" d="M490.77,42.96l-14.15,12.07c-0.3,0.26-0.69,0.35-1.08,0.26c-0.39-0.09-0.69-0.35-0.84-0.71
			c-0.87-2.15-1.92-4.24-3.18-6.18c-2.31-3.62-6.96-8.84-11.87-7.68c-3.24,0.75-5.16,4.36-6.12,7.23c-1.5,4.51-1.65,9.82-0.9,14.48
			c1.8,11.52,8.85,21.02,20.99,22.75c1.38,0.21,2.76,0.3,4.14,0.3c4.64,0,9.35-1.11,13.43-3.37c0.51-0.3,1.14-0.18,1.53,0.26
			c0.39,0.45,0.36,1.11,0,1.56c-6.84,8.06-17.45,10.95-27.74,10.95c-19.19,0-34.66-11.19-34.66-31.35c0-20.15,15.56-31.2,34.66-31.2
			c9.3,0,18.98,2.27,25.82,8.9c0.24,0.24,0.39,0.54,0.36,0.9c0,0.36-0.15,0.65-0.42,0.86L490.77,42.96z"/>
	</g>
	<path class="st0" d="M104.04,51.35l-15.5-5.22c-5.7-1.91-9.92-6.72-11.12-12.57L70.88,1.4C70.7,0.6,69.98,0,69.14,0
		s-1.56,0.6-1.74,1.4l-6.53,32.16c-1.2,5.85-5.43,10.66-11.13,12.57l-15.5,5.22c-0.72,0.24-1.2,0.93-1.2,1.67
		c0,0.75,0.48,1.44,1.2,1.68l15.5,5.22c5.7,1.91,9.93,6.72,11.13,12.57l6.53,32.13c0.18,0.8,0.9,1.4,1.74,1.4s1.56-0.6,1.74-1.4
		l6.54-32.13c1.2-5.85,5.42-10.66,11.12-12.57l15.5-5.22c0.72-0.24,1.2-0.93,1.2-1.68C105.24,52.28,104.76,51.59,104.04,51.35"/>
	<path class="st0" d="M20.75,21.88l5.46,1.86c2,0.68,3.5,2.35,3.92,4.44l2.31,11.35c0.06,0.3,0.3,0.51,0.6,0.51
		c0.3,0,0.54-0.21,0.6-0.51l2.31-11.35c0.42-2.06,1.92-3.76,3.93-4.44l5.46-1.86c0.23-0.08,0.41-0.32,0.41-0.59s-0.18-0.51-0.41-0.6
		l-5.46-1.85c-2.01-0.69-3.51-2.36-3.93-4.45L33.64,3.05c-0.06-0.3-0.3-0.51-0.6-0.51c-0.3,0-0.54,0.21-0.6,0.51l-2.31,11.34
		c-0.42,2.06-1.92,3.76-3.92,4.45l-5.46,1.85c-0.24,0.09-0.42,0.33-0.42,0.6S20.51,21.8,20.75,21.88"/>
	<path class="st0" d="M33.49,77.63l-7.31-2.48c-2.7-0.9-4.71-3.17-5.25-5.94l-3.09-15.2c-0.09-0.39-0.42-0.66-0.81-0.66
		c-0.39,0-0.75,0.27-0.81,0.66l-3.09,15.2c-0.57,2.77-2.58,5.04-5.24,5.94l-7.32,2.48C0.24,77.75,0,78.04,0,78.4
		c0,0.36,0.24,0.69,0.57,0.78l7.32,2.48c2.69,0.89,4.7,3.16,5.24,5.94l3.09,15.2c0.09,0.38,0.42,0.65,0.81,0.65
		c0.39,0,0.75-0.27,0.81-0.65l3.09-15.2c0.57-2.78,2.58-5.05,5.25-5.94l7.31-2.48c0.33-0.12,0.57-0.42,0.57-0.78
		C34.06,78.04,33.82,77.72,33.49,77.63"/>
</g>
</svg>
